<?xml version="1.0" encoding="utf-8"?>
<!-- Generator: Adobe Illustrator 24.0.1, SVG Export Plug-In . SVG Version: 6.00 Build 0)  -->
<svg version="1.1" id="Ebene_2" xmlns="http://www.w3.org/2000/svg" xmlns:xlink="http://www.w3.org/1999/xlink" x="0px" y="0px"
	 viewBox="0 0 283.5 283.5" style="enable-background:new 0 0 283.5 283.5;" xml:space="preserve">
<style type="text/css">
	.st0{fill:#000000;}
</style>
<path class="st0" d="M191.2,223.7"/>
<path class="st0" d="M92.2,223.7"/>
<g>
	<path class="st0" d="M65.7,246.2c-9.1,0-16.5-7.4-16.5-16.5s7.4-16.5,16.5-16.5s16.5,7.4,16.5,16.5S74.8,246.2,65.7,246.2z
		 M65.7,222.1c-4.2,0-7.5,3.4-7.5,7.5s3.4,7.5,7.5,7.5s7.5-3.4,7.5-7.5S69.9,222.1,65.7,222.1z"/>
</g>
<g>
	<path class="st0" d="M180.3,246.2c-9.1,0-16.5-7.4-16.5-16.5s7.4-16.5,16.5-16.5s16.5,7.4,16.5,16.5S189.4,246.2,180.3,246.2z
		 M180.3,222.1c-4.2,0-7.5,3.4-7.5,7.5s3.4,7.5,7.5,7.5s7.5-3.4,7.5-7.5S184.4,222.1,180.3,222.1z"/>
</g>
<path class="st0" d="M210.4,37l-17.5,48.4L41.8,84.9l1.6,69.7l103.3,10.2l2.4-8.8l-96.9-9.6L51,93.9l138.6,0.4l-22.5,62.2L167,157
	l-0.1,0.4c-0.8,4.6-0.9,7.9-0.1,9.8c1.7,4.1,4.8,7,8.5,10.4c3.1,2.9,6.7,6.2,9.9,11c2.5,3.7,2.7,7.7,2.4,9.6
	c-14,0.2-103.8-0.4-139.2-0.7l-0.1,9c4.5,0,91.9,0.7,127.2,0.7c7.9,0,13.2,0,14.4-0.1c2.3-0.2,4.3-1.7,5.5-4.1
	c2.2-4.5,1.9-12.6-2.8-19.4c-3.8-5.6-7.9-9.4-11.2-12.5c-2.9-2.7-5.2-4.8-6.2-7c-0.1-0.8,0.1-2.9,0.4-4.7L216.7,46H243v-9H210.4z"/>
</svg>
